<svg id="svg" 
    xmlns="http://www.w3.org/2000/svg" 
    xmlns:xlink="http://www.w3.org/1999/xlink" width="400" height="90.17341040462428" viewBox="0, 0, 400,90.17341040462428">
    <g id="svgg">
        <path id="path0" d="M0.000 45.087 L 0.000 90.173 200.000 90.173 L 400.000 90.173 400.000 45.087 L 400.000 0.000 200.000 0.000 L 0.000 0.000 0.000 45.087 M46.243 6.769 C 46.243 10.453,34.311 18.497,28.846 18.497 C 22.803 18.497,11.373 27.472,15.293 29.138 C 24.248 32.946,38.656 44.081,41.457 49.357 C 47.674 61.072,25.800 80.370,12.944 74.513 C 5.382 71.067,5.172 67.052,12.552 67.052 C 18.895 67.052,35.889 52.379,33.682 48.808 C 32.907 47.553,26.594 43.277,19.653 39.306 C 12.713 35.335,6.457 31.152,5.751 30.010 C 4.124 27.378,20.262 9.357,26.517 6.822 C 33.001 4.193,46.243 4.157,46.243 6.769 M230.636 19.166 L 235.838 23.927 241.259 18.835 C 252.139 8.614,260.982 20.104,256.896 39.155 C 255.488 45.722,254.335 56.766,254.335 63.698 C 254.335 70.629,253.331 76.301,252.104 76.301 C 247.089 76.301,244.554 65.873,245.602 49.550 C 246.480 35.865,246.086 33.019,243.452 34.030 C 241.678 34.710,237.759 32.948,234.742 30.114 L 229.256 24.960 227.664 35.576 C 226.789 41.415,227.053 53.013,228.252 61.351 C 230.776 78.905,229.550 80.832,221.366 72.172 C 214.465 64.870,211.124 43.109,213.855 23.252 C 215.667 10.078,219.648 9.109,230.636 19.166 M392.601 37.457 C 397.022 41.877,396.378 76.540,391.908 74.825 C 389.886 74.049,388.439 70.586,388.439 66.522 C 388.439 60.586,387.924 59.977,384.971 62.428 C 380.072 66.494,380.618 69.344,387.716 76.752 C 395.576 84.956,390.481 85.343,379.987 77.339 C 369.792 69.563,369.496 60.712,379.191 53.545 C 384.190 49.849,386.127 46.498,386.127 41.549 C 386.127 34.225,388.114 32.969,392.601 37.457 M70.520 46.243 C 74.578 50.726,74.559 50.867,69.890 50.867 C 65.524 50.867,55.491 60.563,55.491 64.782 C 55.491 67.545,64.137 69.042,66.493 66.687 C 69.193 63.986,74.987 70.502,72.895 73.887 C 68.253 81.397,46.243 69.814,46.243 59.860 C 46.243 47.419,63.052 37.991,70.520 46.243 M90.301 43.999 C 105.225 51.986,105.084 76.301,90.114 76.301 C 80.777 76.301,71.861 65.877,76.893 60.845 C 81.485 56.252,88.488 60.417,86.199 66.380 C 85.267 68.811,85.880 69.643,88.071 68.921 C 93.297 67.197,93.293 57.720,88.063 50.646 C 81.133 41.271,81.754 39.425,90.301 43.999 M109.827 46.243 C 110.613 47.514,113.114 48.555,115.385 48.555 C 117.656 48.555,121.398 50.636,123.699 53.179 C 128.075 58.014,126.114 59.265,116.185 57.976 C 114.198 57.718,113.271 61.425,113.218 69.841 L 113.141 82.081 108.594 76.622 C 105.205 72.554,104.046 67.696,104.046 57.547 C 104.046 44.995,106.314 40.560,109.827 46.243 M144.319 48.346 C 148.125 52.551,148.084 52.833,143.463 54.300 C 138.653 55.827,138.662 55.901,144.450 62.780 C 153.473 73.503,145.600 82.486,132.435 76.488 C 125.510 73.332,125.760 70.219,133.087 68.380 L 139.007 66.894 132.839 59.565 L 126.672 52.236 131.800 48.083 C 138.232 42.875,139.390 42.899,144.319 48.346 M200.220 48.862 C 204.586 53.751,204.579 53.780,199.422 52.175 C 193.496 50.330,192.516 53.511,197.688 57.803 C 199.595 59.387,201.156 61.706,201.156 62.958 C 201.156 64.210,199.595 64.636,197.688 63.904 C 195.286 62.982,194.220 64.060,194.220 67.408 C 194.220 71.443,193.646 71.767,190.751 69.364 C 188.355 67.375,187.283 67.288,187.283 69.081 C 187.283 70.508,184.762 71.676,181.680 71.676 C 175.238 71.676,161.149 60.808,163.229 57.442 C 164.052 56.110,166.254 56.668,168.620 58.809 C 175.141 64.711,179.591 63.226,173.813 57.076 C 164.407 47.063,169.071 45.202,180.169 54.541 C 186.845 60.158,187.283 60.241,187.283 55.886 C 187.283 43.661,192.867 40.630,200.220 48.862 M313.988 46.705 C 315.514 48.231,316.795 51.613,316.833 54.220 C 316.899 58.672,317.053 58.703,319.355 54.744 C 321.679 50.748,322.035 50.736,326.213 54.517 C 329.358 57.363,329.939 59.325,328.243 61.368 C 326.560 63.397,327.320 66.692,330.850 72.677 C 340.336 88.754,330.130 84.404,319.789 67.963 C 317.374 64.123,317.018 64.695,316.899 72.613 C 316.765 81.493,316.687 81.573,312.139 77.457 C 308.440 74.109,307.514 70.335,307.514 58.601 C 307.514 43.904,308.809 41.526,313.988 46.705 M299.260 50.688 C 304.548 56.531,307.307 75.075,302.658 73.527 C 300.878 72.934,299.061 70.454,298.620 68.016 C 297.041 59.298,293.642 59.113,293.642 67.746 C 293.642 77.064,290.568 78.894,286.787 71.828 C 278.921 57.132,289.249 39.627,299.260 50.688 M277.299 55.270 C 288.723 71.314,277.562 86.705,264.196 73.339 C 257.738 66.881,258.413 59.182,265.311 60.618 C 267.983 61.174,269.165 63.268,268.779 66.764 C 268.030 73.546,273.697 72.131,274.708 65.283 C 275.179 62.095,273.378 59.065,269.506 56.528 C 262.471 51.918,261.857 48.555,268.051 48.555 C 270.507 48.555,274.669 51.577,277.299 55.270 M365.714 52.381 C 368.915 55.279,369.942 59.577,369.942 70.081 C 369.942 83.807,369.893 83.910,365.318 79.769 C 362.189 76.937,360.694 72.647,360.694 66.501 C 360.694 54.071,355.145 56.178,354.202 68.966 C 352.998 85.312,344.509 78.032,344.509 60.653 C 344.509 47.740,355.743 43.358,365.714 52.381 M339.422 53.642 C 342.718 56.937,343.182 76.301,339.966 76.301 C 336.347 76.301,332.948 67.974,332.948 59.112 C 332.948 50.497,334.752 48.972,339.422 53.642 " stroke="#000000" fill="#000000" fill-rule="evenodd"></path>
    </g>
</svg>